<svg id="visual" viewBox="0 0 900 600" width="900" height="600" xmlns="http://www.w3.org/2000/svg" xmlns:xlink="http://www.w3.org/1999/xlink" version="1.1"><rect x="0" y="0" width="900" height="600" fill="#000000"></rect><path d="M0 297L21.5 278.2C43 259.3 86 221.7 128.8 207.2C171.7 192.7 214.3 201.3 257.2 227C300 252.7 343 295.3 385.8 293.7C428.7 292 471.3 246 514.2 237.7C557 229.3 600 258.7 642.8 259.7C685.7 260.7 728.3 233.3 771.2 223.3C814 213.3 857 220.7 878.5 224.3L900 228L900 0L878.5 0C857 0 814 0 771.2 0C728.3 0 685.7 0 642.8 0C600 0 557 0 514.2 0C471.3 0 428.7 0 385.8 0C343 0 300 0 257.2 0C214.3 0 171.7 0 128.8 0C86 0 43 0 21.5 0L0 0Z" fill="#8a2be2" stroke-linecap="round" stroke-linejoin="miter"></path></svg>